<mxfile host="app.diagrams.net" modified="2024-07-18T07:31:08.691Z" agent="Mozilla/5.0 (Windows NT 10.0; Win64; x64) AppleWebKit/537.36 (KHTML, like Gecko) Chrome/126.0.0.0 Safari/537.36" etag="y-d5ObKBqxfD0DOhjXn8" version="24.7.1" type="github">
  <diagram id="prtHgNgQTEPvFCAcTncT" name="Page-1">
    <mxGraphModel dx="794" dy="446" grid="1" gridSize="10" guides="1" tooltips="1" connect="1" arrows="1" fold="1" page="1" pageScale="1" pageWidth="827" pageHeight="1169" background="#bba5a5" math="0" shadow="0">
      <root>
        <mxCell id="0" />
        <mxCell id="1" parent="0" />
        <mxCell id="L_kFV0kyFGdSUB6Dp24M-13" style="edgeStyle=orthogonalEdgeStyle;rounded=1;orthogonalLoop=1;jettySize=auto;html=1;strokeColor=#028090;labelBackgroundColor=none;fontColor=default;" edge="1" parent="1" source="L_kFV0kyFGdSUB6Dp24M-7">
          <mxGeometry relative="1" as="geometry">
            <mxPoint x="360" y="240" as="targetPoint" />
          </mxGeometry>
        </mxCell>
        <mxCell id="L_kFV0kyFGdSUB6Dp24M-7" value="Web page" style="dashed=0;outlineConnect=0;html=1;align=center;labelPosition=center;verticalLabelPosition=bottom;verticalAlign=top;shape=mxgraph.webicons.myspace;fillColor=#F45B69;strokeColor=#028090;fontColor=#E4FDE1;labelBackgroundColor=none;rounded=1;" vertex="1" parent="1">
          <mxGeometry x="37.6" y="300" width="102.4" height="102.4" as="geometry" />
        </mxCell>
        <mxCell id="L_kFV0kyFGdSUB6Dp24M-8" value="" style="dashed=0;outlineConnect=0;html=1;align=center;labelPosition=center;verticalLabelPosition=bottom;verticalAlign=top;shape=mxgraph.weblogos.gmail;strokeColor=#028090;fontColor=#E4FDE1;fillColor=#F45B69;labelBackgroundColor=none;rounded=1;" vertex="1" parent="1">
          <mxGeometry x="590" y="320" width="64.8" height="46.800000000000004" as="geometry" />
        </mxCell>
        <mxCell id="L_kFV0kyFGdSUB6Dp24M-15" value="" style="whiteSpace=wrap;html=1;aspect=fixed;rounded=1;" vertex="1" parent="1">
          <mxGeometry x="31.2" y="30" width="180" height="180" as="geometry" />
        </mxCell>
        <mxCell id="L_kFV0kyFGdSUB6Dp24M-14" value="" style="whiteSpace=wrap;html=1;aspect=fixed;rounded=1;" vertex="1" parent="1">
          <mxGeometry x="320" y="30" width="230" height="230" as="geometry" />
        </mxCell>
        <mxCell id="L_kFV0kyFGdSUB6Dp24M-34" style="edgeStyle=orthogonalEdgeStyle;rounded=1;orthogonalLoop=1;jettySize=auto;html=1;" edge="1" parent="1" source="L_kFV0kyFGdSUB6Dp24M-10" target="L_kFV0kyFGdSUB6Dp24M-29">
          <mxGeometry relative="1" as="geometry" />
        </mxCell>
        <mxCell id="L_kFV0kyFGdSUB6Dp24M-35" style="edgeStyle=orthogonalEdgeStyle;rounded=1;orthogonalLoop=1;jettySize=auto;html=1;" edge="1" parent="1" source="L_kFV0kyFGdSUB6Dp24M-10" target="L_kFV0kyFGdSUB6Dp24M-20">
          <mxGeometry relative="1" as="geometry" />
        </mxCell>
        <mxCell id="L_kFV0kyFGdSUB6Dp24M-10" value="" style="outlineConnect=0;dashed=0;verticalLabelPosition=bottom;verticalAlign=top;align=center;html=1;shape=mxgraph.aws3.ec2;fillColor=#F45B69;strokeColor=#028090;fontColor=#E4FDE1;labelBackgroundColor=none;rounded=1;" vertex="1" parent="1">
          <mxGeometry x="60" y="80" width="50" height="90" as="geometry" />
        </mxCell>
        <object label="Block Exporter" id="L_kFV0kyFGdSUB6Dp24M-18">
          <mxCell style="sketch=0;aspect=fixed;pointerEvents=1;shadow=0;dashed=0;html=1;strokeColor=none;labelPosition=center;verticalLabelPosition=bottom;verticalAlign=top;align=center;fillColor=#00188D;shape=mxgraph.mscae.enterprise.application_blank;rounded=1;" vertex="1" parent="1">
            <mxGeometry x="350" y="160" width="70" height="60.2" as="geometry" />
          </mxCell>
        </object>
        <object label="Node Exporter" id="L_kFV0kyFGdSUB6Dp24M-20">
          <mxCell style="sketch=0;aspect=fixed;pointerEvents=1;shadow=0;dashed=0;html=1;strokeColor=none;labelPosition=center;verticalLabelPosition=bottom;verticalAlign=top;align=center;fillColor=#00188D;shape=mxgraph.mscae.enterprise.application_blank;rounded=1;" vertex="1" parent="1">
            <mxGeometry x="141.75" y="140" width="46.51" height="40" as="geometry" />
          </mxCell>
        </object>
        <mxCell id="L_kFV0kyFGdSUB6Dp24M-25" value="" style="edgeStyle=orthogonalEdgeStyle;rounded=1;orthogonalLoop=1;jettySize=auto;html=1;exitX=0.895;exitY=-0.078;exitDx=0;exitDy=0;exitPerimeter=0;" edge="1" parent="1" source="L_kFV0kyFGdSUB6Dp24M-18" target="L_kFV0kyFGdSUB6Dp24M-17">
          <mxGeometry relative="1" as="geometry">
            <mxPoint x="430" y="110" as="sourcePoint" />
          </mxGeometry>
        </mxCell>
        <mxCell id="L_kFV0kyFGdSUB6Dp24M-28" style="edgeStyle=orthogonalEdgeStyle;rounded=1;orthogonalLoop=1;jettySize=auto;html=1;" edge="1" parent="1" source="L_kFV0kyFGdSUB6Dp24M-21">
          <mxGeometry relative="1" as="geometry">
            <mxPoint x="620" y="320" as="targetPoint" />
          </mxGeometry>
        </mxCell>
        <mxCell id="L_kFV0kyFGdSUB6Dp24M-21" value="Alert" style="shape=mxgraph.sap.icon;labelPosition=center;verticalLabelPosition=bottom;align=center;verticalAlign=top;strokeWidth=1;strokeColor=#D5DADD;fillColor=#EDEFF0;gradientColor=#FCFCFC;gradientDirection=west;aspect=fixed;SAPIcon=SAP_Alert_Notification_service_for_SAP_BTP;rounded=1;" vertex="1" parent="1">
          <mxGeometry x="480" y="130" width="50" height="50" as="geometry" />
        </mxCell>
        <mxCell id="L_kFV0kyFGdSUB6Dp24M-26" value="" style="edgeStyle=orthogonalEdgeStyle;rounded=1;orthogonalLoop=1;jettySize=auto;html=1;" edge="1" parent="1" source="L_kFV0kyFGdSUB6Dp24M-17" target="L_kFV0kyFGdSUB6Dp24M-21">
          <mxGeometry relative="1" as="geometry" />
        </mxCell>
        <object label="Promotheus" id="L_kFV0kyFGdSUB6Dp24M-17">
          <mxCell style="sketch=0;aspect=fixed;pointerEvents=1;shadow=0;dashed=0;html=1;strokeColor=none;labelPosition=center;verticalLabelPosition=bottom;verticalAlign=top;align=center;fillColor=#00188D;shape=mxgraph.mscae.enterprise.application_blank;rounded=1;" vertex="1" parent="1">
            <mxGeometry x="350" y="64.89999999999999" width="70" height="60.2" as="geometry" />
          </mxCell>
        </object>
        <mxCell id="L_kFV0kyFGdSUB6Dp24M-27" style="edgeStyle=orthogonalEdgeStyle;rounded=1;orthogonalLoop=1;jettySize=auto;html=1;exitX=0.5;exitY=1;exitDx=0;exitDy=0;" edge="1" parent="1" source="L_kFV0kyFGdSUB6Dp24M-14" target="L_kFV0kyFGdSUB6Dp24M-14">
          <mxGeometry relative="1" as="geometry" />
        </mxCell>
        <mxCell id="L_kFV0kyFGdSUB6Dp24M-29" value="Nginx" style="aspect=fixed;sketch=0;html=1;dashed=0;whitespace=wrap;verticalLabelPosition=bottom;verticalAlign=top;fillColor=#2875E2;strokeColor=#ffffff;points=[[0.005,0.63,0],[0.1,0.2,0],[0.9,0.2,0],[0.5,0,0],[0.995,0.63,0],[0.72,0.99,0],[0.5,1,0],[0.28,0.99,0]];shape=mxgraph.kubernetes.icon2;prIcon=k_proxy;rounded=1;" vertex="1" parent="1">
          <mxGeometry x="140" y="52" width="50" height="48" as="geometry" />
        </mxCell>
        <mxCell id="L_kFV0kyFGdSUB6Dp24M-33" style="edgeStyle=orthogonalEdgeStyle;rounded=1;orthogonalLoop=1;jettySize=auto;html=1;entryX=0;entryY=0.5;entryDx=0;entryDy=0;entryPerimeter=0;" edge="1" parent="1" source="L_kFV0kyFGdSUB6Dp24M-20" target="L_kFV0kyFGdSUB6Dp24M-17">
          <mxGeometry relative="1" as="geometry" />
        </mxCell>
        <object label="VM" id="L_kFV0kyFGdSUB6Dp24M-36">
          <mxCell style="rounded=1;whiteSpace=wrap;html=1;" vertex="1" parent="1">
            <mxGeometry x="91.2" y="210" width="60" height="20" as="geometry" />
          </mxCell>
        </object>
      </root>
    </mxGraphModel>
  </diagram>
</mxfile>
